# xmcd
#
# Track frame offsets:
#	150
#	19071
#	58771
#
# Disc length: 1014 seconds
#
# Revision: 1
# Processed by: cddbd v1.5.1PL0 Copyright (c) Steve Scherf et al.
# Submitted via: EasyCDDAExtractor 7.0.5.4
#
DISCID=1f03f403
DTITLE=Monica - Angel Of Mine
DYEAR=1999
DGENRE=R&B
TTITLE0=Angel Of Mine
TTITLE1=The First Night (razor-n-guido club mix)
TTITLE2=Don't Take It Personal (Just One Of Dem Days)
EXTD=
EXTT0=
EXTT1=
EXTT2=
PLAYORDER=
